<mxfile host="app.diagrams.net" modified="2024-01-21T07:19:43.619Z" agent="Mozilla/5.0 (Windows NT 10.0; Win64; x64) AppleWebKit/537.36 (KHTML, like Gecko) Chrome/120.0.0.0 Safari/537.36" version="22.1.21" etag="cDm7SJRoqg08Uuarjh5r" type="github">
  <diagram name="Seite-1" id="-lZxo7MP4Bf9syv1a43j">
    <mxGraphModel>
      <root>
        <mxCell id="0" />
        <mxCell id="1" parent="0" />
      </root>
    </mxGraphModel>
  </diagram>
</mxfile>
